General                          : ChattChitto RG - Movies
==========
Complete name                    : Leap Year 2010 BRRip.mp4
Format                           : MPEG-4
Format profile                   : Base Media
Codec ID                         : isom
File size                        : 1.86 GiB
Duration                         : 1h 40mn
Overall bit rate                 : 2 657 Kbps
Encoded date                     : UTC 2010-04-26 03:11:55

Video
==========
ID                               : 1
Format                           : AVC
Format/Info                      : Advanced Video Codec
Format profile                   : High@L3.1
Format settings, CABAC           : Yes
Format settings, ReFrames        : 3 frames
Codec ID                         : avc1
Codec ID/Info                    : Advanced Video Coding
Duration                         : 1h 40mn
Bit rate mode                    : Variable
Bit rate                         : 2 300 Kbps
Maximum bit rate                 : 13.9 Mbps
Width                            : 1 280 pixels
Height                           : 528 pixels
Display aspect ratio             : 2.40:1
Frame rate mode                  : Constant
Frame rate                       : 23.976 fps
Resolution                       : 8 bits
Colorimetry                      : 4:2:0
Scan type                        : Progressive
Bits/(Pixel*Frame)               : 0.142
Stream size                      : 1.61 GiB (87%)
Writing library                  : x264 core 76 r1271 496d79d
Encoded date                     : UTC 2010-04-26 03:03:59

Audio
==========
ID                               : 2
Format                           : AAC
Format/Info                      : Advanced Audio Codec
Format version                   : Version 4
Format profile                   : LC
Format settings, SBR             : No
Codec ID                         : 40
Duration                         : 1h 40mn
Bit rate mode                    : Variable
Bit rate                         : 352.8 Kbps
Maximum bit rate                 : 443 Kbps
Channel(s)                       : 6 channels
Channel positions                : Front: L C R, Side: L R, LFE
Sampling rate                    : 48.0 KHz
Stream size                      : 254 MiB (13%)
Encoded date                     : UTC 2010-04-26 03:12:44

Subtitles                        : English



----------------------------------------------------
IMDB Link: http://www.imdb.com/title/tt1216492/
----------------------------------------------------


Screen Shots:
============== 
http://bayimg.com/hAMghaacc 
http://bayimg.com/haMGGAAcc 
http://bayimg.com/hAmGfAaCC 
http://bayimg.com/HaMGdAacC 
http://bayimg.com/hAMGcAaCC



Plot:
======
Following an Irish tradition in which a man must say yes if proposed to on a leap day, a woman travels to Dublin to propose to her boyfriend.




Release Info:
==============
original name .... : Leap Year 2010 BRRip.mp4                                
ripper.............: ETHOS
encoder............: Recalled2Life (R2L)
video codec........: H264/.MP4                   
video bitrate......: 2300 Kbps                           
audio codec........: AAC-LC	                                        
aspect ratio.......: 2.40:1                              
resolution.........: 1280 x 528                             
genre..............: Comedy | Romance         
runtime............: 1h 40mn
language...........: English                              
subtitles..........: English
sample.............: Yes [8.13 MB]
2ch Audio..........: 2ch Audio for XBox Viewers 



Source:
========
Leap Year 2010 REPACK 1080p BluRay x264-ETHOS [7.95 GB]


Notes:
=======
ChattChitto RG Encourages Burning this Film with ConvertXtoDVD.
Enhanced and Filtered for your viewing pleasure ;)